Coordinates
nRows=259
nColumns=2
inDegrees=yes
endheader
time	ankle_angle_r	
3.19355	 18.509114	
3.22681	 18.479740	
3.26008	 18.453527	
3.29335	 18.440292	
3.32661	 18.445380	
3.35988	 18.459113	
3.39315	 18.472028	
3.42641	 18.482149	
3.45968	 18.484470	
3.49294	 18.478844	
3.52621	 18.473554	
3.55948	 18.470890	
3.59274	 18.469824	
3.62601	 18.469838	
3.65927	 18.465838	
3.69254	 18.459281	
3.72581	 18.458100	
3.75907	 18.460758	
3.79234	 18.463750	
3.8256	 18.470417	
3.85887	 18.479016	
3.89214	 18.480318	
3.9254	 18.471489	
3.95867	 18.463227	
3.99194	 18.467355	
4.0252	 18.480807	
4.05847	 18.493216	
4.09173	 18.504257	
4.125	 18.517405	
4.15827	 18.526601	
4.19153	 18.525794	
4.2248	 18.518807	
4.25806	 18.510698	
4.29133	 18.503697	
4.3246	 18.499553	
4.35786	 18.497679	
4.39113	 18.498386	
4.4244	 18.503384	
4.45766	 18.507947	
4.49093	 18.502758	
4.52419	 18.485417	
4.55746	 18.464443	
4.59073	 18.451182	
4.62399	 18.449382	
4.65726	 18.453072	
4.69052	 18.455689	
4.72379	 18.456086	
4.75706	 18.453983	
4.79032	 18.449051	
4.82359	 18.440635	
4.85685	 18.428261	
4.89012	 18.420798	
4.92339	 18.431195	
4.95665	 18.456518	
4.98992	 18.476220	
5.02319	 18.471519	
5.05645	 18.446578	
5.08972	 18.426032	
5.12298	 18.425397	
5.15625	 18.437869	
5.18952	 18.449704	
5.22278	 18.452050	
5.25605	 18.445416	
5.28931	 18.439923	
5.32258	 18.443537	
5.35585	 18.450193	
5.38911	 18.447953	
5.42238	 18.438862	
5.45565	 18.437541	
5.48891	 18.449724	
5.52218	 18.464818	
5.55544	 18.473461	
5.58871	 18.480737	
5.62198	 18.489997	
5.65524	 18.494360	
5.68851	 18.494122	
5.72177	 18.492908	
5.75504	 18.483738	
5.78831	 18.465507	
5.82157	 18.452984	
5.85484	 18.456881	
5.8881	 18.470273	
5.92137	 18.477261	
5.95464	 18.472314	
5.9879	 18.464082	
6.02117	 18.458347	
6.05444	 18.456092	
6.0877	 18.460001	
6.12097	 18.465988	
6.15423	 18.464966	
6.1875	 18.457591	
6.22077	 18.452130	
6.25403	 18.451652	
6.2873	 18.454004	
6.32056	 18.457673	
6.35383	 18.462554	
6.3871	 18.465792	
6.42036	 18.460019	
6.45363	 18.446241	
6.4869	 18.440197	
6.52016	 18.451841	
6.55343	 18.472169	
6.58669	 18.485879	
6.61996	 18.483170	
6.65323	 18.465879	
6.68649	 18.447941	
6.71976	 18.439051	
6.75302	 18.435516	
6.78629	 18.435224	
6.81956	 18.442168	
6.85282	 18.451326	
6.88609	 18.453892	
6.91935	 18.454693	
6.95262	 18.461690	
6.98589	 18.467625	
7.01915	 18.461105	
7.05242	 18.448832	
7.08569	 18.446738	
7.11895	 18.454807	
7.15222	 18.462143	
7.18548	 18.464363	
7.21875	 18.460000	
7.25202	 18.447870	
7.28528	 18.433063	
7.31855	 18.424042	
7.35181	 18.427219	
7.38508	 18.441431	
7.41835	 18.453813	
7.45161	 18.453003	
7.48488	 18.443912	
7.51815	 18.437241	
7.55141	 18.434564	
7.58468	 18.433735	
7.61794	 18.434902	
7.65121	 18.437034	
7.68448	 18.436519	
7.71774	 18.427913	
7.75101	 18.415424	
7.78427	 18.416818	
7.81754	 18.437247	
7.85081	 18.458550	
7.88407	 18.463856	
7.91734	 18.456014	
7.9506	 18.452902	
7.98387	 18.468718	
8.01714	 18.495324	
8.0504	 18.510453	
8.08367	 18.507376	
8.11694	 18.497181	
8.1502	 18.488797	
8.18347	 18.486152	
8.21673	 18.489977	
8.25	 18.496084	
8.28327	 18.500238	
8.31653	 18.500731	
8.3498	 18.498113	
8.38306	 18.495244	
8.41633	 18.495262	
8.4496	 18.501362	
8.48286	 18.512622	
8.51613	 18.517806	
8.5494	 18.506843	
8.58266	 18.486498	
8.61593	 18.472238	
8.64919	 18.472213	
8.68246	 18.484328	
8.71573	 18.499565	
8.74899	 18.509708	
8.78226	 18.515524	
8.81552	 18.521634	
8.84879	 18.527049	
8.88206	 18.527919	
8.91532	 18.526361	
8.94859	 18.527959	
8.98185	 18.529799	
9.01512	 18.524402	
9.04839	 18.513841	
9.08165	 18.504696	
9.11492	 18.497300	
9.14819	 18.489983	
9.18145	 18.484029	
9.21472	 18.483212	
9.24798	 18.491966	
9.28125	 18.506808	
9.31452	 18.514845	
9.34778	 18.510673	
9.38105	 18.500779	
9.41431	 18.488648	
9.44758	 18.476611	
9.48085	 18.475075	
9.51411	 18.495270	
9.54738	 18.539536	
9.58065	 18.593281	
9.61391	 18.629658	
9.64718	 18.635704	
9.68044	 18.622528	
9.71371	 18.608322	
9.74698	 18.601388	
9.78024	 18.592793	
9.81351	 18.567811	
9.84677	 18.527653	
9.88004	 18.489492	
9.91331	 18.467956	
9.94657	 18.462772	
9.97984	 18.461906	
10.0131	 18.458140	
10.0464	 18.457881	
10.0796	 18.469271	
10.1129	 18.490083	
10.1462	 18.506023	
10.1794	 18.498524	
10.2127	 18.467750	
10.246	 18.439910	
10.2792	 18.434191	
10.3125	 18.444470	
10.3458	 18.462275	
10.379	 18.485463	
10.4123	 18.505069	
10.4456	 18.508666	
10.4788	 18.495111	
10.5121	 18.478103	
10.5454	 18.473180	
10.5786	 18.479548	
10.6119	 18.482543	
10.6452	 18.474632	
10.6784	 18.458311	
10.7117	 18.436157	
10.745	 18.416429	
10.7782	 18.413039	
10.8115	 18.430588	
10.8448	 18.459115	
10.878	 18.479167	
10.9113	 18.477754	
10.9446	 18.463779	
10.9778	 18.453010	
11.0111	 18.446976	
11.0444	 18.437516	
11.0776	 18.419929	
11.1109	 18.402736	
11.1442	 18.403404	
11.1774	 18.423780	
11.2107	 18.444160	
11.244	 18.450143	
11.2772	 18.444894	
11.3105	 18.438515	
11.3437	 18.442616	
11.377	 18.460329	
11.4103	 18.477994	
11.4435	 18.481277	
11.4768	 18.470124	
11.5101	 18.455155	
11.5433	 18.449326	
11.5766	 18.456530	
11.6099	 18.465789	
11.6431	 18.464116	
11.6764	 18.453046	
11.7097	 18.445314	
11.7429	 18.445857	
11.7762	 18.449138	
